<svg width="276" height="67" viewBox="0 0 276 67" fill="none" xmlns="http://www.w3.org/2000/svg">
<path d="M16.8 52.57C13.58 52.57 10.43 52.1967 7.34999 51.45C4.31666 50.7033 1.86666 49.77 -9.68948e-06 48.65L3.98999 39.55C5.76332 40.6233 7.83999 41.4867 10.22 42.14C12.6 42.7467 14.9333 43.05 17.22 43.05C19.46 43.05 21 42.8167 21.84 42.35C22.7267 41.8833 23.17 41.2533 23.17 40.46C23.17 39.7133 22.75 39.1767 21.91 38.85C21.1167 38.4767 20.0433 38.1967 18.69 38.01C17.3833 37.8233 15.9367 37.6133 14.35 37.38C12.7633 37.1467 11.1533 36.8433 9.51999 36.47C7.93332 36.05 6.46332 35.4433 5.10999 34.65C3.80332 33.81 2.75332 32.69 1.95999 31.29C1.16666 29.89 0.76999 28.1167 0.76999 25.97C0.76999 23.5433 1.46999 21.3967 2.86999 19.53C4.31666 17.6167 6.41666 16.1233 9.16999 15.05C11.9233 13.93 15.2833 13.37 19.25 13.37C21.91 13.37 24.5933 13.65 27.3 14.21C30.0533 14.7233 32.3633 15.5167 34.23 16.59L30.24 25.62C28.3733 24.5467 26.5067 23.8233 24.64 23.45C22.7733 23.03 21 22.82 19.32 22.82C17.08 22.82 15.4933 23.0767 14.56 23.59C13.6733 24.1033 13.23 24.7333 13.23 25.48C13.23 26.2267 13.6267 26.81 14.42 27.23C15.2133 27.6033 16.2633 27.9067 17.57 28.14C18.9233 28.3267 20.3933 28.5367 21.98 28.77C23.5667 28.9567 25.1533 29.26 26.74 29.68C28.3733 30.1 29.8433 30.73 31.15 31.57C32.5033 32.3633 33.5767 33.46 34.37 34.86C35.1633 36.2133 35.56 37.9633 35.56 40.11C35.56 42.4433 34.8367 44.5433 33.39 46.41C31.99 48.2767 29.89 49.77 27.09 50.89C24.3367 52.01 20.9067 52.57 16.8 52.57ZM61.4512 52.57C58.3712 52.57 55.5946 51.9633 53.1212 50.75C50.6946 49.5367 48.7812 47.6467 47.3812 45.08C46.0279 42.4667 45.3512 39.1767 45.3512 35.21V14H58.6512V33.04C58.6512 35.98 59.1879 38.08 60.2612 39.34C61.3812 40.6 62.9446 41.23 64.9512 41.23C66.2579 41.23 67.4479 40.9267 68.5212 40.32C69.5946 39.7133 70.4579 38.7567 71.1112 37.45C71.7646 36.0967 72.0912 34.37 72.0912 32.27V14H85.3912V51.94H72.7212V41.23L75.1712 44.24C73.8646 47.04 71.9746 49.14 69.5012 50.54C67.0279 51.8933 64.3446 52.57 61.4512 52.57ZM104.668 66.15C102.661 66.15 100.631 65.8233 98.578 65.17C96.5714 64.5633 94.938 63.7467 93.678 62.72L98.298 53.41C99.0914 54.11 100.001 54.6467 101.028 55.02C102.101 55.44 103.151 55.65 104.178 55.65C105.625 55.65 106.768 55.3233 107.608 54.67C108.448 54.0167 109.171 52.99 109.778 51.59L111.528 47.18L112.578 45.85L125.458 14H138.128L121.748 53.48C120.441 56.7467 118.925 59.29 117.198 61.11C115.518 62.9767 113.628 64.2833 111.528 65.03C109.475 65.7767 107.188 66.15 104.668 66.15ZM109.848 53.55L93.118 14H106.768L119.088 44.66L109.848 53.55ZM167.637 51.94V44.87L166.727 43.12V30.1C166.727 28 166.074 26.39 164.767 25.27C163.507 24.1033 161.477 23.52 158.677 23.52C156.857 23.52 155.014 23.8233 153.147 24.43C151.281 24.99 149.694 25.7833 148.387 26.81L143.907 17.78C146.054 16.38 148.621 15.3067 151.607 14.56C154.641 13.7667 157.651 13.37 160.637 13.37C166.797 13.37 171.557 14.7933 174.917 17.64C178.324 20.44 180.027 24.85 180.027 30.87V51.94H167.637ZM156.437 52.57C153.404 52.57 150.837 52.0567 148.737 51.03C146.637 50.0033 145.027 48.6033 143.907 46.83C142.834 45.0567 142.297 43.0733 142.297 40.88C142.297 38.5467 142.881 36.54 144.047 34.86C145.261 33.1333 147.104 31.8267 149.577 30.94C152.051 30.0067 155.247 29.54 159.167 29.54H168.127V36.47H160.987C158.841 36.47 157.324 36.82 156.437 37.52C155.597 38.22 155.177 39.1533 155.177 40.32C155.177 41.4867 155.621 42.42 156.507 43.12C157.394 43.82 158.607 44.17 160.147 44.17C161.594 44.17 162.901 43.82 164.067 43.12C165.281 42.3733 166.167 41.2533 166.727 39.76L168.547 44.66C167.847 47.2733 166.471 49.2567 164.417 50.61C162.411 51.9167 159.751 52.57 156.437 52.57ZM206.412 52.57C203.192 52.57 200.042 52.1967 196.962 51.45C193.929 50.7033 191.479 49.77 189.612 48.65L193.602 39.55C195.376 40.6233 197.452 41.4867 199.832 42.14C202.212 42.7467 204.546 43.05 206.832 43.05C209.072 43.05 210.612 42.8167 211.452 42.35C212.339 41.8833 212.782 41.2533 212.782 40.46C212.782 39.7133 212.362 39.1767 211.522 38.85C210.729 38.4767 209.656 38.1967 208.302 38.01C206.996 37.8233 205.549 37.6133 203.962 37.38C202.376 37.1467 200.766 36.8433 199.132 36.47C197.546 36.05 196.076 35.4433 194.722 34.65C193.416 33.81 192.366 32.69 191.572 31.29C190.779 29.89 190.382 28.1167 190.382 25.97C190.382 23.5433 191.082 21.3967 192.482 19.53C193.929 17.6167 196.029 16.1233 198.782 15.05C201.536 13.93 204.896 13.37 208.862 13.37C211.522 13.37 214.206 13.65 216.912 14.21C219.666 14.7233 221.976 15.5167 223.842 16.59L219.852 25.62C217.986 24.5467 216.119 23.8233 214.252 23.45C212.386 23.03 210.612 22.82 208.932 22.82C206.692 22.82 205.106 23.0767 204.172 23.59C203.286 24.1033 202.842 24.7333 202.842 25.48C202.842 26.2267 203.239 26.81 204.032 27.23C204.826 27.6033 205.876 27.9067 207.182 28.14C208.536 28.3267 210.006 28.5367 211.592 28.77C213.179 28.9567 214.766 29.26 216.352 29.68C217.986 30.1 219.456 30.73 220.762 31.57C222.116 32.3633 223.189 33.46 223.982 34.86C224.776 36.2133 225.172 37.9633 225.172 40.11C225.172 42.4433 224.449 44.5433 223.002 46.41C221.602 48.2767 219.502 49.77 216.702 50.89C213.949 52.01 210.519 52.57 206.412 52.57ZM259.814 13.37C262.754 13.37 265.414 13.9767 267.794 15.19C270.174 16.3567 272.04 18.1767 273.394 20.65C274.794 23.1233 275.494 26.32 275.494 30.24V51.94H262.194V32.41C262.194 29.7033 261.634 27.7433 260.514 26.53C259.44 25.27 257.924 24.64 255.964 24.64C254.564 24.64 253.28 24.9667 252.114 25.62C250.947 26.2267 250.037 27.1833 249.384 28.49C248.73 29.7967 248.404 31.5 248.404 33.6V51.94H235.104V-5.96046e-07H248.404V24.78L245.324 21.63C246.77 18.8767 248.754 16.8233 251.274 15.47C253.794 14.07 256.64 13.37 259.814 13.37Z" fill="url(#paint0_linear_288_41)"/>
<defs>
<linearGradient id="paint0_linear_288_41" x1="4.23999" y1="21.8647" x2="274.494" y2="63.3876" gradientUnits="userSpaceOnUse">
<stop stop-color="#C7522A"/>
<stop offset="1" stop-color="#B72F00"/>
</linearGradient>
</defs>
</svg>
