<svg width="109" height="27" viewBox="0 0 109 27" fill="none" xmlns="http://www.w3.org/2000/svg">
<path d="M102.477 5.32604C103.668 5.32604 104.747 5.56771 105.711 6.05105C106.676 6.5158 107.433 7.24081 107.981 8.22608C108.549 9.21135 108.832 10.4848 108.832 12.0463V20.6907H103.441V12.9108C103.441 11.8325 103.214 11.0518 102.76 10.5684C102.325 10.0665 101.711 9.81553 100.916 9.81553C100.349 9.81553 99.8284 9.94566 99.3555 10.2059C98.8826 10.4476 98.5138 10.8287 98.2489 11.3492C97.9841 11.8697 97.8517 12.5483 97.8517 13.3848V20.6907H92.4606V0H97.8517V9.8713L96.6032 8.61647C97.1896 7.51966 97.9936 6.7017 99.015 6.16259C100.036 5.60489 101.19 5.32604 102.477 5.32604Z" fill="url(#paint0_radial_537_574)"/>
<path d="M81.3982 20.9417C80.093 20.9417 78.8162 20.7929 77.5677 20.4955C76.3382 20.1981 75.3451 19.8263 74.5884 19.3801L76.2058 15.755C76.9246 16.1826 77.7664 16.5265 78.7311 16.7868C79.6958 17.0285 80.6416 17.1493 81.5685 17.1493C82.4765 17.1493 83.1007 17.0563 83.4412 16.8704C83.8006 16.6845 83.9803 16.4336 83.9803 16.1175C83.9803 15.8201 83.81 15.6063 83.4696 15.4762C83.148 15.3275 82.7129 15.2159 82.1643 15.1416C81.6347 15.0672 81.0483 14.9836 80.4051 14.8906C79.762 14.7977 79.1094 14.6768 78.4473 14.5281C77.8042 14.3608 77.2083 14.1191 76.6598 13.8031C76.1301 13.4685 75.7045 13.0223 75.3829 12.4646C75.0614 11.9069 74.9006 11.2005 74.9006 10.3453C74.9006 9.37866 75.1843 8.52352 75.7518 7.77992C76.3382 7.01773 77.1894 6.42285 78.3055 5.99528C79.4215 5.54912 80.7835 5.32604 82.3913 5.32604C83.4696 5.32604 84.5572 5.43758 85.6544 5.66066C86.7704 5.86515 87.7068 6.18118 88.4634 6.60875L86.8461 10.2059C86.0894 9.77835 85.3328 9.4902 84.5761 9.34148C83.8195 9.17417 83.1007 9.09052 82.4197 9.09052C81.5117 9.09052 80.8686 9.19276 80.4903 9.39725C80.1309 9.60174 79.9512 9.85271 79.9512 10.1501C79.9512 10.4476 80.1119 10.68 80.4335 10.8473C80.7551 10.996 81.1807 11.1168 81.7104 11.2098C82.2589 11.2841 82.8548 11.3678 83.4979 11.4607C84.1411 11.5351 84.7842 11.6559 85.4274 11.8232C86.0894 11.9906 86.6853 12.2415 87.2149 12.5761C87.7635 12.8922 88.1986 13.329 88.5201 13.8867C88.8417 14.4259 89.0025 15.123 89.0025 15.9781C89.0025 16.9076 88.7093 17.7442 88.1229 18.4878C87.5554 19.2314 86.7042 19.8263 85.5692 20.2724C84.4532 20.7186 83.0628 20.9417 81.3982 20.9417Z" fill="url(#paint1_radial_537_574)"/>
<path d="M66.2485 20.6907V17.8743L65.8796 17.1772V11.9906C65.8796 11.154 65.6148 10.5127 65.0851 10.0665C64.5744 9.60174 63.7515 9.36937 62.6166 9.36937C61.8788 9.36937 61.1317 9.4902 60.375 9.73187C59.6184 9.95495 58.9752 10.271 58.4456 10.68L56.6296 7.08279C57.4998 6.52509 58.5402 6.09752 59.7508 5.80008C60.9803 5.48405 62.2004 5.32604 63.4111 5.32604C65.908 5.32604 67.8374 5.89303 69.1994 7.02703C70.5802 8.14243 71.2707 9.89918 71.2707 12.2973V20.6907H66.2485ZM61.7086 20.9417C60.4791 20.9417 59.4387 20.7372 58.5874 20.3282C57.7362 19.9192 57.0836 19.3615 56.6296 18.6551C56.1946 17.9487 55.977 17.1586 55.977 16.2849C55.977 15.3554 56.2135 14.556 56.6864 13.8867C57.1782 13.1989 57.9254 12.6784 58.9279 12.3252C59.9305 11.9534 61.2262 11.7675 62.8152 11.7675H66.4471V14.5281H63.5529C62.6828 14.5281 62.068 14.6675 61.7086 14.9464C61.3681 15.2252 61.1979 15.597 61.1979 16.0618C61.1979 16.5265 61.3776 16.8983 61.737 17.1772C62.0964 17.456 62.5882 17.5954 63.2124 17.5954C63.7988 17.5954 64.3285 17.456 64.8014 17.1772C65.2932 16.8797 65.6526 16.4336 65.8796 15.8387L66.6173 17.7906C66.3336 18.8317 65.7756 19.6218 64.9433 20.1609C64.1299 20.6814 63.0516 20.9417 61.7086 20.9417Z" fill="url(#paint2_radial_537_574)"/>
<path d="M41.2917 26.3514C40.4783 26.3514 39.6554 26.2212 38.8231 25.961C38.0097 25.7193 37.3477 25.394 36.8369 24.985L38.7096 21.2763C39.0312 21.5551 39.4001 21.7689 39.8162 21.9176C40.2513 22.0849 40.6769 22.1686 41.093 22.1686C41.6794 22.1686 42.1429 22.0385 42.4834 21.7782C42.8239 21.5179 43.1171 21.109 43.363 20.5513L44.0723 18.7945L44.4979 18.2647L49.7188 5.57701H54.8545L48.2149 21.3042C47.6853 22.6055 47.0705 23.6186 46.3706 24.3436C45.6896 25.0872 44.9235 25.6078 44.0723 25.9052C43.24 26.2026 42.3131 26.3514 41.2917 26.3514ZM43.3913 21.332L36.6099 5.57701H42.1429L47.1367 17.7906L43.3913 21.332Z" fill="url(#paint3_radial_537_574)"/>
<path d="M24.3414 20.9417C23.093 20.9417 21.9675 20.7 20.9649 20.2166C19.9813 19.7333 19.2057 18.9804 18.6382 17.958C18.0897 16.9169 17.8154 15.6063 17.8154 14.0262V5.57701H23.2065V13.1617C23.2065 14.3329 23.424 15.1695 23.8591 15.6714C24.3131 16.1733 24.9468 16.4243 25.7601 16.4243C26.2898 16.4243 26.7722 16.3034 27.2072 16.0618C27.6423 15.8201 27.9922 15.439 28.2571 14.9185C28.5219 14.3794 28.6543 13.6915 28.6543 12.855V5.57701H34.0454V20.6907H28.9097V16.4243L29.9028 17.6233C29.3731 18.7387 28.607 19.5753 27.6045 20.133C26.6019 20.6721 25.5142 20.9417 24.3414 20.9417Z" fill="url(#paint4_radial_537_574)"/>
<path d="M6.80979 20.9417C5.50458 20.9417 4.22774 20.7929 2.97928 20.4955C1.74974 20.1981 0.756643 19.8263 0 19.3801L1.61732 15.755C2.33614 16.1826 3.1779 16.5265 4.14262 16.7868C5.10734 17.0285 6.05314 17.1493 6.98003 17.1493C7.888 17.1493 8.51223 17.0563 8.85272 16.8704C9.21213 16.6845 9.39183 16.4336 9.39183 16.1175C9.39183 15.8201 9.22159 15.6063 8.8811 15.4762C8.55953 15.3275 8.12446 15.2159 7.57589 15.1416C7.04624 15.0672 6.45984 14.9836 5.81669 14.8906C5.17355 14.7977 4.52094 14.6768 3.85888 14.5281C3.21573 14.3608 2.61988 14.1191 2.07131 13.8031C1.54166 13.4685 1.11605 13.0223 0.794475 12.4646C0.472902 11.9069 0.312115 11.2005 0.312115 10.3453C0.312115 9.37866 0.595859 8.52352 1.16334 7.77992C1.74974 7.01773 2.60096 6.42285 3.71701 5.99528C4.83306 5.54912 6.19502 5.32604 7.80288 5.32604C8.8811 5.32604 9.96878 5.43758 11.0659 5.66066C12.182 5.86515 13.1183 6.18118 13.8749 6.60875L12.2576 10.2059C11.501 9.77835 10.7443 9.4902 9.98769 9.34148C9.23105 9.17417 8.51223 9.09052 7.83125 9.09052C6.92328 9.09052 6.28014 9.19276 5.90181 9.39725C5.54241 9.60174 5.36271 9.85271 5.36271 10.1501C5.36271 10.4476 5.52349 10.68 5.84507 10.8473C6.16664 10.996 6.59225 11.1168 7.1219 11.2098C7.67047 11.2841 8.26633 11.3678 8.90947 11.4607C9.55262 11.5351 10.1958 11.6559 10.8389 11.8232C11.501 11.9906 12.0968 12.2415 12.6265 12.5761C13.175 12.8922 13.6101 13.329 13.9317 13.8867C14.2533 14.4259 14.4141 15.123 14.4141 15.9781C14.4141 16.9076 14.1209 17.7442 13.5345 18.4878C12.967 19.2314 12.1157 19.8263 10.9808 20.2724C9.86473 20.7186 8.4744 20.9417 6.80979 20.9417Z" fill="url(#paint5_radial_537_574)"/>
<defs>
<radialGradient id="paint0_radial_537_574" cx="0" cy="0" r="1" gradientTransform="matrix(130.368 13.092 -2.48405 23.8904 36.9337 13.1757)" gradientUnits="userSpaceOnUse">
<stop offset="0.51" stop-color="#2176FF"/>
<stop offset="1" stop-color="#023992"/>
</radialGradient>
<radialGradient id="paint1_radial_537_574" cx="0" cy="0" r="1" gradientTransform="matrix(130.368 13.092 -2.48405 23.8904 36.9337 13.1757)" gradientUnits="userSpaceOnUse">
<stop offset="0.51" stop-color="#2176FF"/>
<stop offset="1" stop-color="#023992"/>
</radialGradient>
<radialGradient id="paint2_radial_537_574" cx="0" cy="0" r="1" gradientTransform="matrix(130.368 13.092 -2.48405 23.8904 36.9337 13.1757)" gradientUnits="userSpaceOnUse">
<stop offset="0.51" stop-color="#2176FF"/>
<stop offset="1" stop-color="#023992"/>
</radialGradient>
<radialGradient id="paint3_radial_537_574" cx="0" cy="0" r="1" gradientTransform="matrix(130.368 13.092 -2.48405 23.8904 36.9337 13.1757)" gradientUnits="userSpaceOnUse">
<stop offset="0.51" stop-color="#2176FF"/>
<stop offset="1" stop-color="#023992"/>
</radialGradient>
<radialGradient id="paint4_radial_537_574" cx="0" cy="0" r="1" gradientTransform="matrix(130.368 13.092 -2.48405 23.8904 36.9337 13.1757)" gradientUnits="userSpaceOnUse">
<stop offset="0.51" stop-color="#2176FF"/>
<stop offset="1" stop-color="#023992"/>
</radialGradient>
<radialGradient id="paint5_radial_537_574" cx="0" cy="0" r="1" gradientTransform="matrix(130.368 13.092 -2.48405 23.8904 36.9337 13.1757)" gradientUnits="userSpaceOnUse">
<stop offset="0.51" stop-color="#2176FF"/>
<stop offset="1" stop-color="#023992"/>
</radialGradient>
</defs>
</svg>
